<?xml version="1.0" ?><svg viewBox="0 0 24 24" xmlns="http://www.w3.org/2000/svg"><title/><g data-name="Google Wallet" id="Google_Wallet"><g data-name="&lt;Group&gt;" id="_Group_"><path d="M11,18.5c-.47-1.44-1.87-6.09-4.5-9h-5c2.63,2.91,4,7.56,4.5,9Z" data-name="&lt;Path&gt;" id="_Path_" style="fill:none;stroke:#687c86;stroke-linecap:round;stroke-linejoin:round"/><path d="M9.5,5.5a29.83,29.83,0,0,1-1.25,6.43" data-name="&lt;Path&gt;" id="_Path_2" style="fill:none;stroke:#687c86;stroke-linecap:round;stroke-linejoin:round"/><path d="M11,18.5a60,60,0,0,0,2.15-6.23" data-name="&lt;Path&gt;" id="_Path_3" style="fill:none;stroke:#687c86;stroke-linecap:round;stroke-linejoin:round"/><path d="M9.5,5.5c4.42,7.29,6,12.17,7,17h5c-1-4.83-2.58-9.71-7-17Z" data-name="&lt;Path&gt;" id="_Path_4" style="fill:none;stroke:#687c86;stroke-linecap:round;stroke-linejoin:round"/><path d="M21.5,22.5a44,44,0,0,0,1-10.5,44,44,0,0,0-1-10.5h-5a42.11,42.11,0,0,1,1,9.39" data-name="&lt;Path&gt;" id="_Path_5" style="fill:none;stroke:#687c86;stroke-linecap:round;stroke-linejoin:round"/></g></g></svg>